<?xml version="1.0" encoding="UTF-8"?>
<!DOCTYPE svg PUBLIC "-//W3C//DTD SVG 1.1//EN" "http://www.w3.org/Graphics/SVG/1.1/DTD/svg11.dtd">
<!-- Creator: CorelDRAW 2019 (64-Bit) -->
<svg xmlns="http://www.w3.org/2000/svg" xml:space="preserve" width="210mm" height="148mm" version="1.1" style="shape-rendering:geometricPrecision; text-rendering:geometricPrecision; image-rendering:optimizeQuality; fill-rule:evenodd; clip-rule:evenodd"
viewBox="0 0 20985.75 14789.96"
 xmlns:xlink="http://www.w3.org/1999/xlink">
 <defs>
  <style type="text/css">
   <![CDATA[
    .str71 {stroke:#009DE0;stroke-width:7.61;stroke-miterlimit:22.9256}
    .str49 {stroke:#009DE0;stroke-width:76.04;stroke-linecap:round;stroke-linejoin:round;stroke-miterlimit:22.9256}
    .str47 {stroke:#009DE0;stroke-width:76.04;stroke-linecap:round;stroke-linejoin:round;stroke-miterlimit:22.9256}
    .str51 {stroke:#009DE0;stroke-width:76.04;stroke-linecap:round;stroke-linejoin:round;stroke-miterlimit:22.9256}
    .str52 {stroke:#009DE0;stroke-width:76.04;stroke-linecap:round;stroke-linejoin:round;stroke-miterlimit:22.9256}
    .str50 {stroke:#009DE0;stroke-width:76.04;stroke-linecap:round;stroke-linejoin:round;stroke-miterlimit:22.9256}
    .str56 {stroke:#009DE0;stroke-width:76.04;stroke-linecap:round;stroke-linejoin:round;stroke-miterlimit:22.9256}
    .str60 {stroke:#009DE0;stroke-width:76.04;stroke-linecap:round;stroke-linejoin:round;stroke-miterlimit:22.9256}
    .str59 {stroke:#009DE0;stroke-width:76.04;stroke-linecap:round;stroke-linejoin:round;stroke-miterlimit:22.9256}
    .str55 {stroke:#009DE0;stroke-width:76.04;stroke-linecap:round;stroke-linejoin:round;stroke-miterlimit:22.9256}
    .str48 {stroke:#009DE0;stroke-width:76.04;stroke-linecap:round;stroke-linejoin:round;stroke-miterlimit:22.9256}
    .str46 {stroke:#009DE0;stroke-width:76.04;stroke-linecap:round;stroke-linejoin:round;stroke-miterlimit:22.9256}
    .str58 {stroke:#009DE0;stroke-width:76.04;stroke-linecap:round;stroke-linejoin:round;stroke-miterlimit:22.9256}
    .str54 {stroke:#009DE0;stroke-width:76.04;stroke-linecap:round;stroke-linejoin:round;stroke-miterlimit:22.9256}
    .str53 {stroke:#009DE0;stroke-width:76.04;stroke-linecap:round;stroke-linejoin:round;stroke-miterlimit:22.9256}
    .str61 {stroke:#009DE0;stroke-width:76.04;stroke-linecap:round;stroke-linejoin:round;stroke-miterlimit:22.9256}
    .str57 {stroke:#009DE0;stroke-width:76.04;stroke-linecap:round;stroke-linejoin:round;stroke-miterlimit:22.9256}
    .str80 {stroke:#009DE0;stroke-width:76.05;stroke-linecap:round;stroke-linejoin:round;stroke-miterlimit:22.9256}
    .str81 {stroke:#009DE0;stroke-width:76.05;stroke-linecap:round;stroke-linejoin:round;stroke-miterlimit:22.9256}
    .str67 {stroke:#009DE0;stroke-width:76.06;stroke-linecap:round;stroke-linejoin:round;stroke-miterlimit:22.9256}
    .str72 {stroke:#009DE0;stroke-width:76.06;stroke-linecap:round;stroke-linejoin:round;stroke-miterlimit:22.9256}
    .str75 {stroke:#009DE0;stroke-width:76.06;stroke-linecap:round;stroke-linejoin:round;stroke-miterlimit:22.9256}
    .str73 {stroke:#009DE0;stroke-width:76.06;stroke-linecap:round;stroke-linejoin:round;stroke-miterlimit:22.9256}
    .str76 {stroke:#009DE0;stroke-width:76.06;stroke-linecap:round;stroke-linejoin:round;stroke-miterlimit:22.9256}
    .str74 {stroke:#009DE0;stroke-width:76.06;stroke-linecap:round;stroke-linejoin:round;stroke-miterlimit:22.9256}
    .str115 {stroke:#009DE0;stroke-width:76.07;stroke-linecap:round;stroke-linejoin:round;stroke-miterlimit:22.9256}
    .str116 {stroke:#009DE0;stroke-width:76.07;stroke-linecap:round;stroke-linejoin:round;stroke-miterlimit:22.9256}
    .str117 {stroke:#009DE0;stroke-width:76.07;stroke-linecap:round;stroke-linejoin:round;stroke-miterlimit:22.9256}
    .str114 {stroke:#009DE0;stroke-width:76.07;stroke-linecap:round;stroke-linejoin:round;stroke-miterlimit:22.9256}
    .str107 {stroke:#009DE0;stroke-width:76.07;stroke-linecap:round;stroke-linejoin:round;stroke-miterlimit:22.9256}
    .str100 {stroke:#009DE0;stroke-width:76.07;stroke-linecap:round;stroke-linejoin:round;stroke-miterlimit:22.9256}
    .str102 {stroke:#009DE0;stroke-width:76.07;stroke-linecap:round;stroke-linejoin:round;stroke-miterlimit:22.9256}
    .str108 {stroke:#009DE0;stroke-width:76.07;stroke-linecap:round;stroke-linejoin:round;stroke-miterlimit:22.9256}
    .str105 {stroke:#009DE0;stroke-width:76.07;stroke-linecap:round;stroke-linejoin:round;stroke-miterlimit:22.9256}
    .str113 {stroke:#009DE0;stroke-width:76.07;stroke-linecap:round;stroke-linejoin:round;stroke-miterlimit:22.9256}
    .str103 {stroke:#009DE0;stroke-width:76.07;stroke-linecap:round;stroke-linejoin:round;stroke-miterlimit:22.9256}
    .str111 {stroke:#009DE0;stroke-width:76.07;stroke-linecap:round;stroke-linejoin:round;stroke-miterlimit:22.9256}
    .str112 {stroke:#009DE0;stroke-width:76.07;stroke-linecap:round;stroke-linejoin:round;stroke-miterlimit:22.9256}
    .str99 {stroke:#009DE0;stroke-width:76.07;stroke-linecap:round;stroke-linejoin:round;stroke-miterlimit:22.9256}
    .str101 {stroke:#009DE0;stroke-width:76.07;stroke-linecap:round;stroke-linejoin:round;stroke-miterlimit:22.9256}
    .str110 {stroke:#009DE0;stroke-width:76.07;stroke-linecap:round;stroke-linejoin:round;stroke-miterlimit:22.9256}
    .str106 {stroke:#009DE0;stroke-width:76.07;stroke-linecap:round;stroke-linejoin:round;stroke-miterlimit:22.9256}
    .str104 {stroke:#009DE0;stroke-width:76.07;stroke-linecap:round;stroke-linejoin:round;stroke-miterlimit:22.9256}
    .str109 {stroke:#009DE0;stroke-width:76.07;stroke-linecap:round;stroke-linejoin:round;stroke-miterlimit:22.9256}
    .str95 {stroke:#009DE0;stroke-width:76.09;stroke-linecap:round;stroke-linejoin:round;stroke-miterlimit:22.9256}
    .str96 {stroke:#009DE0;stroke-width:76.09;stroke-linecap:round;stroke-linejoin:round;stroke-miterlimit:22.9256}
    .str88 {stroke:#009DE0;stroke-width:76.09;stroke-linecap:round;stroke-linejoin:round;stroke-miterlimit:22.9256}
    .str97 {stroke:#009DE0;stroke-width:76.09;stroke-linecap:round;stroke-linejoin:round;stroke-miterlimit:22.9256}
    .str89 {stroke:#009DE0;stroke-width:76.09;stroke-linecap:round;stroke-linejoin:round;stroke-miterlimit:22.9256}
    .str87 {stroke:#009DE0;stroke-width:76.09;stroke-linecap:round;stroke-linejoin:round;stroke-miterlimit:22.9256}
    .str84 {stroke:#009DE0;stroke-width:76.09;stroke-linecap:round;stroke-linejoin:round;stroke-miterlimit:22.9256}
    .str82 {stroke:#009DE0;stroke-width:76.09;stroke-linecap:round;stroke-linejoin:round;stroke-miterlimit:22.9256}
    .str90 {stroke:#009DE0;stroke-width:76.09;stroke-linecap:round;stroke-linejoin:round;stroke-miterlimit:22.9256}
    .str94 {stroke:#009DE0;stroke-width:76.09;stroke-linecap:round;stroke-linejoin:round;stroke-miterlimit:22.9256}
    .str91 {stroke:#009DE0;stroke-width:76.09;stroke-linecap:round;stroke-linejoin:round;stroke-miterlimit:22.9256}
    .str93 {stroke:#009DE0;stroke-width:76.09;stroke-linecap:round;stroke-linejoin:round;stroke-miterlimit:22.9256}
    .str86 {stroke:#009DE0;stroke-width:76.09;stroke-linecap:round;stroke-linejoin:round;stroke-miterlimit:22.9256}
    .str92 {stroke:#009DE0;stroke-width:76.09;stroke-linecap:round;stroke-linejoin:round;stroke-miterlimit:22.9256}
    .str85 {stroke:#009DE0;stroke-width:76.09;stroke-linecap:round;stroke-linejoin:round;stroke-miterlimit:22.9256}
    .str83 {stroke:#009DE0;stroke-width:76.09;stroke-linecap:round;stroke-linejoin:round;stroke-miterlimit:22.9256}
    .str2 {stroke:#009DE0;stroke-width:76.1;stroke-linecap:round;stroke-linejoin:round;stroke-miterlimit:22.9256}
    .str4 {stroke:#009DE0;stroke-width:76.11;stroke-linecap:round;stroke-linejoin:round;stroke-miterlimit:22.9256}
    .str5 {stroke:#009DE0;stroke-width:76.11;stroke-linecap:round;stroke-linejoin:round;stroke-miterlimit:22.9256}
    .str3 {stroke:#009DE0;stroke-width:76.11;stroke-linecap:round;stroke-linejoin:round;stroke-miterlimit:22.9256}
    .str1 {stroke:#009DE0;stroke-width:76.11;stroke-linecap:round;stroke-linejoin:round;stroke-miterlimit:22.9256}
    .str7 {stroke:#009DE0;stroke-width:76.13;stroke-linecap:round;stroke-linejoin:round;stroke-miterlimit:22.9256}
    .str77 {stroke:#009DE0;stroke-width:76.14;stroke-linecap:round;stroke-linejoin:round;stroke-miterlimit:22.9256}
    .str78 {stroke:#009DE0;stroke-width:76.14;stroke-linecap:round;stroke-linejoin:round;stroke-miterlimit:22.9256}
    .str68 {stroke:#009DE0;stroke-width:76.14;stroke-linecap:round;stroke-linejoin:round;stroke-miterlimit:22.9256}
    .str69 {stroke:#009DE0;stroke-width:76.14;stroke-linecap:round;stroke-linejoin:round;stroke-miterlimit:22.9256}
    .str36 {stroke:#009DE0;stroke-width:76.14;stroke-linecap:round;stroke-linejoin:round;stroke-miterlimit:22.9256}
    .str44 {stroke:#009DE0;stroke-width:76.15;stroke-linecap:round;stroke-linejoin:round;stroke-miterlimit:22.9256}
    .str45 {stroke:#009DE0;stroke-width:76.15;stroke-linecap:round;stroke-linejoin:round;stroke-miterlimit:22.9256}
    .str98 {stroke:#009DE0;stroke-width:76.15;stroke-linecap:round;stroke-linejoin:round;stroke-miterlimit:22.9256}
    .str37 {stroke:#009DE0;stroke-width:76.15;stroke-linecap:round;stroke-linejoin:round;stroke-miterlimit:22.9256}
    .str38 {stroke:#009DE0;stroke-width:76.15;stroke-linecap:round;stroke-linejoin:round;stroke-miterlimit:22.9256}
    .str21 {stroke:#009DE0;stroke-width:76.16;stroke-linecap:round;stroke-linejoin:round;stroke-miterlimit:22.9256}
    .str19 {stroke:#009DE0;stroke-width:76.16;stroke-linecap:round;stroke-linejoin:round;stroke-miterlimit:22.9256}
    .str18 {stroke:#009DE0;stroke-width:76.16;stroke-linecap:round;stroke-linejoin:round;stroke-miterlimit:22.9256}
    .str16 {stroke:#009DE0;stroke-width:76.16;stroke-linecap:round;stroke-linejoin:round;stroke-miterlimit:22.9256}
    .str20 {stroke:#009DE0;stroke-width:76.16;stroke-linecap:round;stroke-linejoin:round;stroke-miterlimit:22.9256}
    .str17 {stroke:#009DE0;stroke-width:76.16;stroke-linecap:round;stroke-linejoin:round;stroke-miterlimit:22.9256}
    .str10 {stroke:#009DE0;stroke-width:76.17;stroke-linecap:round;stroke-linejoin:round;stroke-miterlimit:22.9256}
    .str9 {stroke:#009DE0;stroke-width:76.17;stroke-linecap:round;stroke-linejoin:round;stroke-miterlimit:22.9256}
    .str6 {stroke:#009DE0;stroke-width:76.17;stroke-linecap:round;stroke-linejoin:round;stroke-miterlimit:22.9256}
    .str8 {stroke:#009DE0;stroke-width:76.17;stroke-linecap:round;stroke-linejoin:round;stroke-miterlimit:22.9256}
    .str39 {stroke:#009DE0;stroke-width:76.17;stroke-linecap:round;stroke-linejoin:round;stroke-miterlimit:22.9256}
    .str119 {stroke:#009DE0;stroke-width:76.18;stroke-linecap:round;stroke-linejoin:round;stroke-miterlimit:22.9256}
    .str0 {stroke:#009DE0;stroke-width:76.18;stroke-linecap:round;stroke-linejoin:round;stroke-miterlimit:22.9256}
    .str29 {stroke:#009DE0;stroke-width:76.18;stroke-linecap:round;stroke-linejoin:round;stroke-miterlimit:22.9256}
    .str25 {stroke:#009DE0;stroke-width:76.18;stroke-linecap:round;stroke-linejoin:round;stroke-miterlimit:22.9256}
    .str34 {stroke:#009DE0;stroke-width:76.18;stroke-linecap:round;stroke-linejoin:round;stroke-miterlimit:22.9256}
    .str24 {stroke:#009DE0;stroke-width:76.18;stroke-linecap:round;stroke-linejoin:round;stroke-miterlimit:22.9256}
    .str118 {stroke:#009DE0;stroke-width:76.18;stroke-linecap:round;stroke-linejoin:round;stroke-miterlimit:22.9256}
    .str26 {stroke:#009DE0;stroke-width:76.18;stroke-linecap:round;stroke-linejoin:round;stroke-miterlimit:22.9256}
    .str31 {stroke:#009DE0;stroke-width:76.18;stroke-linecap:round;stroke-linejoin:round;stroke-miterlimit:22.9256}
    .str32 {stroke:#009DE0;stroke-width:76.18;stroke-linecap:round;stroke-linejoin:round;stroke-miterlimit:22.9256}
    .str22 {stroke:#009DE0;stroke-width:76.18;stroke-linecap:round;stroke-linejoin:round;stroke-miterlimit:22.9256}
    .str35 {stroke:#009DE0;stroke-width:76.18;stroke-linecap:round;stroke-linejoin:round;stroke-miterlimit:22.9256}
    .str23 {stroke:#009DE0;stroke-width:76.18;stroke-linecap:round;stroke-linejoin:round;stroke-miterlimit:22.9256}
    .str120 {stroke:#009DE0;stroke-width:76.18;stroke-linecap:round;stroke-linejoin:round;stroke-miterlimit:22.9256}
    .str121 {stroke:#009DE0;stroke-width:76.18;stroke-linecap:round;stroke-linejoin:round;stroke-miterlimit:22.9256}
    .str27 {stroke:#009DE0;stroke-width:76.18;stroke-linecap:round;stroke-linejoin:round;stroke-miterlimit:22.9256}
    .str30 {stroke:#009DE0;stroke-width:76.18;stroke-linecap:round;stroke-linejoin:round;stroke-miterlimit:22.9256}
    .str33 {stroke:#009DE0;stroke-width:76.18;stroke-linecap:round;stroke-linejoin:round;stroke-miterlimit:22.9256}
    .str28 {stroke:#009DE0;stroke-width:76.18;stroke-linecap:round;stroke-linejoin:round;stroke-miterlimit:22.9256}
    .str15 {stroke:#009DE0;stroke-width:76.18;stroke-linecap:round;stroke-linejoin:round;stroke-miterlimit:22.9256}
    .str13 {stroke:#009DE0;stroke-width:76.18;stroke-linecap:round;stroke-linejoin:round;stroke-miterlimit:22.9256}
    .str14 {stroke:#009DE0;stroke-width:76.18;stroke-linecap:round;stroke-linejoin:round;stroke-miterlimit:22.9256}
    .str12 {stroke:#009DE0;stroke-width:76.18;stroke-linecap:round;stroke-linejoin:round;stroke-miterlimit:22.9256}
    .str42 {stroke:#009DE0;stroke-width:76.18;stroke-linecap:round;stroke-linejoin:round;stroke-miterlimit:22.9256}
    .str43 {stroke:#009DE0;stroke-width:76.18;stroke-linecap:round;stroke-linejoin:round;stroke-miterlimit:22.9256}
    .str41 {stroke:#009DE0;stroke-width:76.18;stroke-linecap:round;stroke-linejoin:round;stroke-miterlimit:22.9256}
    .str40 {stroke:#009DE0;stroke-width:76.18;stroke-linecap:round;stroke-linejoin:round;stroke-miterlimit:22.9256}
    .str63 {stroke:#009DE0;stroke-width:76.18;stroke-linecap:round;stroke-linejoin:round;stroke-miterlimit:22.9256}
    .str65 {stroke:#009DE0;stroke-width:76.18;stroke-linecap:round;stroke-linejoin:round;stroke-miterlimit:22.9256}
    .str64 {stroke:#009DE0;stroke-width:76.18;stroke-linecap:round;stroke-linejoin:round;stroke-miterlimit:22.9256}
    .str66 {stroke:#009DE0;stroke-width:76.18;stroke-linecap:round;stroke-linejoin:round;stroke-miterlimit:22.9256}
    .str70 {stroke:#009DE0;stroke-width:76.18;stroke-linecap:round;stroke-linejoin:round;stroke-miterlimit:22.9256}
    .str79 {stroke:#009DE0;stroke-width:76.18;stroke-linecap:round;stroke-linejoin:round;stroke-miterlimit:22.9256}
    .str62 {stroke:#009DE0;stroke-width:76.22;stroke-linecap:round;stroke-linejoin:round;stroke-miterlimit:22.9256}
    .str11 {stroke:#009DE0;stroke-width:76.18;stroke-linecap:round;stroke-linejoin:round;stroke-miterlimit:22.9256;stroke-dasharray:152.356543 380.891357}
    .fil1 {fill:none}
    .fil4 {fill:none;fill-rule:nonzero}
    .fil0 {fill:#FEFEFE}
    .fil2 {fill:#009DE0;fill-rule:nonzero}
    .fil3 {fill:#364370;fill-rule:nonzero}
   ]]>
  </style>
 </defs>
 <g id="Warstwa_x0020_1">
  <metadata id="CorelCorpID_0Corel-Layer"/>
  <rect class="fil0" width="20985.75" height="14789.96"/>
  <g>
   <line class="fil1 str0" x1="910.19" y1="10200.91" x2="20075.56" y2= "10200.91" />
  </g>
  <g>
   <g>
    <path class="fil1 str1" d="M2755.03 6062.95c-598.66,0 -1084.04,485.38 -1084.04,1084.04 0,598.66 485.38,1084.04 1084.04,1084.04 598.66,0 1084.04,-485.38 1084.04,-1084.04 0,-598.66 -485.38,-1084.04 -1084.04,-1084.04z"/>
   </g>
   <g>
    <path class="fil1 str2" d="M1641.49 7984.22c-310.52,0 -562.28,251.76 -562.28,562.28 0,310.52 251.76,562.28 562.28,562.28 310.52,0 562.28,-251.76 562.28,-562.28 0,-310.52 -251.76,-562.28 -562.28,-562.28z"/>
   </g>
   <g>
    <polyline class="fil1 str3" points="3213.47,7412.7 2822.68,7981.07 2822.68,10201.27 "/>
   </g>
   <g>
    <line class="fil1 str4" x1="2201.02" y1="7004.01" x2="2822.68" y2= "7981.07" />
   </g>
   <g>
    <line class="fil1 str5" x1="2826.62" y1="9052.72" x2="1654.27" y2= "8617.69" />
   </g>
  </g>
  <g>
   <g>
    <path class="fil1 str6" d="M17589.52 4616.81c807.87,0 1462.88,655.01 1462.88,1462.88 0,807.86 -655.01,1462.87 -1462.88,1462.87 -807.87,0 -1462.87,-655.01 -1462.87,-1462.87 0,-807.87 655,-1462.88 1462.87,-1462.88z"/>
   </g>
   <g>
    <path class="fil1 str7" d="M19092.21 7209.48c419.03,0 758.76,339.74 758.76,758.77 0,419.03 -339.74,758.77 -758.76,758.77 -419.04,0 -758.77,-339.75 -758.77,-758.77 0,-419.04 339.74,-758.77 758.77,-758.77z"/>
   </g>
   <g>
    <polyline class="fil1 str8" points="16970.88,6438.24 17498.22,7205.24 17498.22,10201.31 "/>
   </g>
   <g>
    <line class="fil1 str9" x1="18337.15" y1="5886.74" x2="17498.22" y2= "7205.24" />
   </g>
   <g>
    <line class="fil1 str10" x1="17492.91" y1="8651.4" x2="19074.95" y2= "8064.33" />
   </g>
  </g>
  <g>
   <line class="fil1 str11" x1="1790.95" y1="10554.97" x2="19579.08" y2= "10554.97" />
  </g>
  <g>
   <g>
    <polyline class="fil1 str12" points="6107.2,4831.06 6396.42,4831.06 8449.12,4831.06 "/>
   </g>
   <g>
    <path class="fil1 str13" d="M10462.25 4403.81l-532.87 0c0,0 -263.35,-756.64 -993.54,-348.68 0,0 -618.6,-427.65 -921.13,184.18 0,0 -960.72,-328.99 -1125.01,434.22 0,0 -262.95,-111.78 -322.23,157.93"/>
   </g>
   <g>
    <path class="fil1 str14" d="M8501.63 4522.36c0,0 131.68,-98.85 342.12,-59.28 210.45,39.58 309.5,203.88 302.73,335.56 0,0 118.55,-111.98 263.15,32.82l249.83 0"/>
   </g>
   <g>
    <line class="fil1 str15" x1="9843.85" y1="4831.06" x2="10199.09" y2= "4831.06" />
   </g>
  </g>
  <g>
   <g>
    <path class="fil1 str16" d="M1344.16 3213.5l546.29 0c0,0 -283.39,-465.38 424.86,-667.72 708.24,-202.33 849.86,384.48 849.86,384.48 0,0 40.52,-364.13 485.57,-283.24 445.04,80.91 364.14,343.96 364.14,343.96 0,0 182.15,-182 313.67,60.72 0,0 222.52,-161.81 505.76,-70.81 283.24,91 263.05,343.96 263.05,343.96l343.96 0"/>
   </g>
   <g>
    <line class="fil1 str17" x1="2143.25" y1="3405.74" x2="2760.5" y2= "3405.74" />
   </g>
   <g>
    <line class="fil1 str18" x1="2740.16" y1="3233.68" x2="3003.21" y2= "3233.68" />
   </g>
   <g>
    <line class="fil1 str19" x1="2507.55" y1="3527.17" x2="3367.5" y2= "3527.17" />
   </g>
   <g>
    <line class="fil1 str20" x1="4358.83" y1="3436.02" x2="5299.69" y2= "3436.02" />
   </g>
   <g>
    <line class="fil1 str21" x1="4095.78" y1="3436.02" x2="4156.5" y2= "3436.02" />
   </g>
  </g>
  <g>
   <line class="fil1 str22" x1="9146.48" y1="4798.64" x2="9225.45" y2= "4798.64" />
  </g>
  <g>
   <g>
    <line class="fil1 str23" x1="8107" y1="2552" x2="10212.03" y2= "2552" />
   </g>
   <g>
    <line class="fil1 str24" x1="9422.56" y1="2236.33" x2="10843.55" y2= "2236.33" />
   </g>
   <g>
    <line class="fil1 str25" x1="8810.93" y1="2236.33" x2="8876.76" y2= "2236.33" />
   </g>
   <g>
    <line class="fil1 str26" x1="9027.94" y1="2236.33" x2="9093.77" y2= "2236.33" />
   </g>
   <g>
    <line class="fil1 str27" x1="10481.93" y1="2552" x2="10547.78" y2= "2552" />
   </g>
   <g>
    <path class="fil1 str28" d="M7744.99 2032.46c85.53,0 710.7,0 710.7,0"/>
   </g>
  </g>
  <g>
   <g>
    <line class="fil1 str29" x1="1689.5" y1="5283.37" x2="2794.82" y2= "5283.37" />
   </g>
   <g>
    <line class="fil1 str30" x1="2531.67" y1="5494.01" x2="3505.32" y2= "5494.01" />
   </g>
   <g>
    <line class="fil1 str31" x1="3104.12" y1="5191.27" x2="3169.97" y2= "5191.27" />
   </g>
  </g>
  <g>
   <g>
    <line class="fil1 str32" x1="17604.56" y1="2716.5" x2="18709.87" y2= "2716.5" />
   </g>
   <g>
    <line class="fil1 str33" x1="18446.71" y1="2927.13" x2="19420.36" y2= "2927.13" />
   </g>
   <g>
    <line class="fil1 str34" x1="19019.17" y1="2716.5" x2="19085.01" y2= "2716.5" />
   </g>
   <g>
    <line class="fil1 str35" x1="17341.99" y1="2927.13" x2="17407.83" y2= "2927.13" />
   </g>
  </g>
  <g>
   <g>
    <path class="fil1 str36" d="M16183.85 7405.91c-196.54,0 -355.87,159.33 -355.87,355.87 0,196.54 159.33,355.88 355.87,355.88 196.54,0 355.87,-159.34 355.87,-355.88 0,-196.54 -159.33,-355.87 -355.87,-355.87z"/>
   </g>
   <g>
    <path class="fil1 str37" d="M16183.85 7405.91c-178.79,0 -326.77,131.84 -352.07,303.55l704.14 0c-25.3,-171.71 -173.28,-303.55 -352.07,-303.55z"/>
   </g>
   <g>
    <path class="fil2" d="M16031.83 8194.53l0 -75.77 304.08 0 0 75.77 -304.08 0zm-161.94 119.96l0 0 0.21 -10.01 0.63 -9.89 1.03 -9.74 1.42 -9.61 1.82 -9.48 2.19 -9.26 2.55 -9.09 2.91 -8.88 3.24 -8.65 3.58 -8.42 3.9 -8.2 4.22 -7.93 4.5 -7.65 4.82 -7.41 5.08 -7.07 5.35 -6.81 5.62 -6.48 5.85 -6.16 6.14 -5.84 6.33 -5.46 6.58 -5.13 6.8 -4.73 6.97 -4.34 7.19 -3.95 7.36 -3.54 7.53 -3.1 7.69 -2.67 7.87 -2.21 7.98 -1.73 8.1 -1.26 8.2 -0.76 8.31 -0.26 0 75.77 -5.06 0.16 -4.99 0.46 -4.91 0.76 -4.83 1.05 -4.72 1.33 -4.66 1.61 -4.56 1.88 -4.47 2.14 -4.35 2.39 -4.27 2.66 -4.14 2.89 -4 3.11 -3.89 3.36 -3.74 3.56 -3.61 3.8 -3.46 3.98 -3.29 4.19 -3.14 4.39 -2.94 4.52 -2.78 4.74 -2.6 4.88 -2.38 5.01 -2.2 5.19 -2 5.34 -1.79 5.43 -1.55 5.56 -1.35 5.69 -1.1 5.77 -0.88 5.9 -0.63 6.01 -0.39 6.1 -0.13 6.18 0 0 -63.2 0zm63.2 533.07l-31.6 37.88 -31.6 -37.88 0 -533.07 63.2 0 0 533.07zm-63.2 0l63.2 0c0,20.92 -14.15,37.88 -31.6,37.88 -17.45,0 -31.6,-16.97 -31.6,-37.88zm596.37 -37.88l31.6 37.88 -31.6 37.88 -564.77 0 0 -75.77 564.77 0zm0 75.77l0 -75.77c17.45,0 31.6,16.97 31.6,37.88 0,20.92 -14.15,37.88 -31.6,37.88zm-31.6 -570.95l63.2 0 0 533.07 -63.2 0 0 -533.07zm-98.74 -195.73l0 0 8.31 0.26 8.2 0.76 8.1 1.26 7.98 1.73 7.87 2.21 7.69 2.67 7.53 3.1 7.36 3.54 7.19 3.95 6.97 4.34 6.8 4.73 6.58 5.13 6.33 5.46 6.14 5.84 5.85 6.16 5.62 6.48 5.35 6.81 5.08 7.07 4.82 7.41 4.5 7.65 4.22 7.93 3.9 8.2 3.58 8.42 3.24 8.65 2.91 8.88 2.55 9.09 2.19 9.26 1.82 9.48 1.42 9.61 1.03 9.74 0.63 9.89 0.21 10.01 -63.2 0 -0.13 -6.18 -0.39 -6.1 -0.63 -6.01 -0.88 -5.9 -1.1 -5.77 -1.35 -5.69 -1.55 -5.56 -1.79 -5.43 -2 -5.34 -2.2 -5.19 -2.38 -5.01 -2.6 -4.88 -2.78 -4.74 -2.94 -4.52 -3.14 -4.39 -3.29 -4.19 -3.46 -3.98 -3.61 -3.8 -3.74 -3.56 -3.89 -3.36 -4 -3.11 -4.14 -2.89 -4.27 -2.66 -4.35 -2.39 -4.47 -2.14 -4.56 -1.88 -4.66 -1.61 -4.72 -1.33 -4.83 -1.05 -4.91 -0.76 -4.99 -0.46 -5.06 -0.16 0 0 0 -75.77z"/>
   </g>
   <g>
    <path class="fil1 str38" d="M16183.85 7213.21c-92.48,0 -167.49,70.31 -167.49,156.99 0,13.49 1.8,26.54 5.22,39.07 48.62,-24.92 103.83,-39.02 162.27,-39.02 58.44,0 113.65,14.1 162.27,39.02 3.42,-12.53 5.23,-25.58 5.23,-39.07 0,-86.68 -75.01,-156.99 -167.5,-156.99z"/>
   </g>
   <g>
    <path class="fil2" d="M16343.74 8173.8l-56.34 -34.32c7.89,-18.65 26.93,-26.09 42.48,-16.62 15.55,9.47 21.76,32.29 13.86,50.94zm-265.13 -37.82l12.81 22.3 12.38 19.11 11.9 16.08 11.35 13.24 10.72 10.59 10.06 8.18 9.35 6.05 8.66 4.19 8.02 2.62 7.53 1.3 7.21 0.17 7.01 -0.85 6.91 -1.79 6.88 -2.74 6.89 -3.64 6.84 -4.48 6.75 -5.28 6.6 -5.95 6.38 -6.53 6.12 -6.97 5.8 -7.24 5.45 -7.39 5.04 -7.37 4.59 -7.2 4.13 -6.9 3.62 -6.41 3.1 -5.78 2.55 -5.01 1.97 -4.04 1.37 -2.91 0.77 -1.74 0.07 -0.15 56.34 34.32 -0.61 1.39 -1.21 2.72 -1.93 4.13 -2.57 5.28 -3.25 6.33 -3.88 7.26 -4.54 8 -5.17 8.63 -5.81 9.11 -6.46 9.43 -7.09 9.63 -7.75 9.67 -8.41 9.54 -9.11 9.3 -9.83 8.86 -10.58 8.25 -11.35 7.43 -12.14 6.4 -12.95 5.1 -13.7 3.55 -14.36 1.69 -14.86 -0.37 -15.23 -2.64 -15.38 -5.02 -15.36 -7.44 -15.27 -9.86 -15.14 -12.32 -15 -14.81 -14.87 -17.34 -14.8 -20 -14.76 -22.76 -14.73 -25.64 52.96 -41.33zm0 0l-52.96 41.33c-9.51,-17.53 -5.38,-41 9.24,-52.41 14.62,-11.41 34.21,-6.45 43.72,11.08z"/>
   </g>
   <g>
    <path class="fil1 str39" d="M16395.78 8847.53l-431.58 0c-35.89,0 -65.19,29.3 -65.19,65.19l0 619.81 222.19 0 25.71 -183.04 33.05 -235.36 33.05 235.36 25.71 183.04 222.24 0 0 -619.81c0,-35.89 -29.3,-65.19 -65.19,-65.19z"/>
   </g>
   <g>
    <g>
     <path class="fil1 str40" d="M15915.7 10119.32c6.99,-11.28 5.37,9.78 17.42,-46.24 12.05,-56.01 77.02,-540.58 77.02,-540.58"/>
    </g>
    <g>
     <path class="fil1 str41" d="M15887.96 10112.33c0,0 -63.29,35.38 -91.27,45.22 -27.98,9.84 -25.05,37.7 -2.45,41.04 22.61,3.34 27.5,4.18 50.95,-1.19 23.44,-5.38 44.8,-27.98 57.15,-31.26 12.35,-3.29 57.57,-17.31 45.64,-49.76 0,0 -37.34,9.06 -60.02,-4.06z"/>
    </g>
    <g>
     <path class="fil1 str42" d="M16449.73 10119.32c-6.99,-11.28 -5.44,9.78 -17.42,-46.24 -11.93,-56.01 -82.5,-540.58 -82.5,-540.58"/>
    </g>
    <g>
     <path class="fil1 str43" d="M16477.46 10112.33c0,0 63.3,35.38 91.28,45.22 27.97,9.84 25.05,37.7 2.44,41.04 -22.6,3.34 -27.49,4.18 -50.94,-1.19 -23.44,-5.38 -44.8,-27.98 -57.15,-31.26 -12.35,-3.29 -57.57,-17.31 -45.64,-49.76 0,0 37.34,9.06 60.01,-4.06z"/>
    </g>
   </g>
   <g>
    <path class="fil1 str44" d="M15914.07 8247c0,0 -505.97,-301.29 -614.28,-765.53"/>
   </g>
   <g>
    <path class="fil1 str45" d="M16438.33 8217.07c0,0 358.59,393.99 370.2,417.23 11.61,23.22 11.61,23.22 11.61,23.22 0,0 -359.19,313.32 -359.19,344.27 0,30.95 0,30.95 0,30.95 0,0 53.55,11.58 49.7,46.43"/>
   </g>
  </g>
  <path class="fil3" d="M8582.83 12643.26c0,156.08 -56.68,277.9 -169.69,365.21 -113.48,87.31 -267.1,130.85 -461.21,130.85 -210.3,0 -372.25,-27.34 -485.26,-81.56l0 -199.14c72.88,30.63 151.98,55.03 237.64,72.87 85.67,17.73 170.63,26.41 255.02,26.41 137.54,0 240.93,-26.05 310.52,-78.16 69.59,-51.75 104.33,-124.29 104.33,-217.34 0,-61.38 -12.44,-111.84 -36.84,-150.81 -24.76,-39.31 -66.2,-75.34 -123.82,-108.79 -57.97,-33.21 -146.1,-70.88 -264.05,-112.66 -164.76,-59.14 -282.82,-129.2 -353.59,-209.95 -70.76,-80.63 -106.44,-186.24 -106.44,-316.62 0,-136.72 51.41,-245.5 154.09,-326.25 103.04,-80.74 238.82,-121.34 407.69,-121.34 176.39,0 338.69,32.27 486.56,96.93l-64.2 179.2c-146.58,-61.61 -289.04,-92.36 -427.29,-92.36 -108.91,0 -194.58,23.7 -255.84,70.41 -61.73,47.18 -92.36,112.19 -92.36,195.87 0,61.61 11.62,111.72 33.92,151.16 22.88,39.31 60.91,75.34 114.77,107.97 53.74,32.74 136.13,68.76 247.15,108.55 185.88,66.2 313.81,137.43 383.75,213.58 69.94,75.82 105.15,174.74 105.15,295.97zm950.57 496.06c-86.49,0 -165.59,-16.19 -237.29,-48.12 -71.12,-31.8 -131.55,-81.08 -180.03,-147.28l-14.55 0c9.62,77.34 14.55,151.04 14.55,220.63l0 546.05 -201.26 0 0 -1925.09 163.6 0 28.16 181.32 9.5 0c51.75,-72.88 112.19,-125.45 180.97,-157.72 68.65,-32.28 147.28,-48.47 236.35,-48.47 176.39,0 312.52,60.44 408.63,180.96 95.65,120.41 143.64,289.4 143.64,507.1 0,218.63 -48.82,388.33 -146.11,509.2 -97.75,120.99 -232.71,181.43 -406.16,181.43zm-28.98 -1207.23c-135.79,0 -234.36,37.67 -294.8,112.54 -60.79,75.34 -91.89,195.05 -93.54,359.35l0 44.71c0,186.71 30.99,320.49 93.54,400.77 62.08,80.74 162.3,120.88 299.73,120.88 114.77,0 205.02,-46.36 269.92,-139.54 65.02,-93.07 97.75,-220.98 97.75,-384.58 0,-165.59 -32.74,-292.68 -97.75,-381.28 -64.9,-88.61 -156.9,-132.85 -274.84,-132.85zm2080 516.6c0,216.98 -54.68,386.33 -163.59,508.03 -109.26,121.7 -259.94,182.61 -452.4,182.61 -118.89,0 -224.51,-27.81 -316.74,-83.67 -91.89,-55.86 -163.13,-136.25 -213.24,-240.58 -50.47,-104.33 -75.34,-226.38 -75.34,-366.38 0,-216.87 54.21,-385.87 162.65,-506.75 108.09,-120.87 258.77,-181.31 450.88,-181.31 186.35,0 333.75,61.73 443.37,185.41 109.73,123.82 164.41,291.51 164.41,502.64zm-1012.65 0c0,169.81 33.91,299.37 101.86,388.33 67.83,89.07 167.7,133.32 299.73,133.32 131.67,0 231.77,-44.25 300.2,-132.85 68.29,-88.6 102.21,-218.16 102.21,-388.8 0,-168.88 -33.92,-297.26 -102.21,-385.05 -68.42,-87.78 -169.35,-131.55 -302.66,-131.55 -132.14,0 -231.42,42.95 -298.55,129.56 -67.01,86.49 -100.57,215.69 -100.57,387.04zm1971.91 -688.05c58.8,0 111.84,4.93 158.55,14.43l-27.7 187.65c-55.03,-12.09 -103.5,-18.31 -145.75,-18.31 -107.27,0 -199.15,43.54 -275.67,130.85 -76.28,87.43 -114.3,196.22 -114.3,326.25l0 712.94 -201.61 0 0 -1328.94 166.41 0 22.77 245.51 9.97 0c49.29,-86.61 108.44,-153.27 178.03,-199.97 69.47,-46.83 145.63,-70.41 229.3,-70.41zm837.21 1212.16c35.57,0 69.94,-2.46 103.04,-7.86 33.1,-5.28 59.27,-10.67 78.63,-16.54l0 154.44c-21.95,10.32 -53.74,19.13 -96.46,26.05 -42.13,7.05 -80.63,10.44 -114.65,10.44 -257.13,0 -385.4,-135.43 -385.4,-406.63l0 -790.74 -190.47 0 0 -96.81 190.47 -84.02 84.85 -283.65 116.29 0 0 308.05 385.87 0 0 156.43 -385.87 0 0 782.06c0,80.39 19.14,141.64 57.16,184.71 38.13,42.6 90.24,64.08 156.54,64.08z"/>
  <g>
   <g>
    <g>
     <path class="fil1 str46" d="M10266.51 8877.6c365.44,0 661.85,296.41 661.85,661.85 0,365.45 -296.41,661.86 -661.85,661.86 -365.45,0 -661.86,-296.41 -661.86,-661.86 0,-365.44 296.41,-661.85 661.86,-661.85z"/>
    </g>
    <g>
     <path class="fil1 str47" d="M12908.68 8877.6c365.45,0 661.86,296.41 661.86,661.85 0,365.45 -296.41,661.86 -661.86,661.86 -365.45,0 -661.86,-296.41 -661.86,-661.86 0,-365.44 296.41,-661.85 661.86,-661.85z"/>
    </g>
    <g>
     <path class="fil1 str48" d="M10266.51 9539.45c0,0 657.1,0 1108.35,0 267.9,0 340.18,-369.2 479.25,-717.38 95.06,-238.13 221.87,-466.75 463.76,-560.81"/>
    </g>
    <g>
     <line class="fil1 str49" x1="12908.68" y1="9539.45" x2="12193.8" y2= "7938.34" />
    </g>
    <g>
     <line class="fil1 str50" x1="11258.79" y1="9539.45" x2="10972.39" y2= "8453.12" />
    </g>
    <g>
     <line class="fil1 str48" x1="10266.51" y1="9539.45" x2="11061.44" y2= "8791.3" />
    </g>
    <g>
     <path class="fil1 str51" d="M12475.45 8569.43c0,0 -348.43,-136.08 -621.34,252.64"/>
    </g>
    <g>
     <path class="fil1 str52" d="M10733.01 8498.39c0,0 417.73,-74.79 446.74,-95.3 29.02,-20.52 6.26,-49.78 -105.56,-45.53 -111.8,4.26 -312.42,6.01 -333.17,16.51 -20.77,10.5 -53.78,62.04 -8,124.32z"/>
    </g>
    <g>
     <line class="fil1 str53" x1="11964.68" y1="7944.85" x2="12274.84" y2= "7882.81" />
    </g>
    <g>
     <path class="fil1 str54" d="M11082.44 7182.18l0.25 686.87 -359.7 0 -0.25 -597.57c0,-64.29 45.78,-117.82 106.31,-130.07 14.51,54.02 70.54,94.3 137.08,94.3 48.28,0 91.05,-21.26 116.31,-53.52z"/>
    </g>
    <g>
     <path class="fil1 str55" d="M10723 7954.1l665.37 -0.25 0 293.41 -554.55 0.25c-61.04,0 -110.81,-49.53 -110.81,-110.81l0 -182.6z"/>
    </g>
    <g>
     <path class="fil1 str56" d="M11250.79 6459.78c67.53,59.79 110.06,147.08 110.06,244.13 0,180.1 -145.58,325.68 -325.43,325.68 -144.82,0 -267.64,-94.55 -309.91,-225.37 13.75,6.75 28.76,11 44.77,11.75 0,0 53.28,-186.85 255.14,-208.61 73.29,-41.28 155.08,-92.31 225.38,-147.59z"/>
    </g>
    <g>
     <path class="fil1 str57" d="M10888.6 7374.03l942.76 497.77c0,0 149.08,-58.03 190.35,49.53"/>
    </g>
    <g>
     <path class="fil1 str58" d="M11082.44 7312.25l1079.34 512.02c0,0 95.8,-29.77 113.06,58.53"/>
    </g>
    <g>
     <path class="fil1 str59" d="M11388.37 8100.43c0,0 162.58,1 235.12,52.52 72.54,51.53 217.12,1096.1 217.12,1096.1 0,0 62.03,-20.52 175.84,-10.25 113.81,10.25 113.81,10.25 113.81,10.25"/>
    </g>
    <g>
     <path class="fil1 str60" d="M11388.37 7992.37c0,0 219.86,25.76 292.15,67.28 72.29,41.52 258.64,987.78 258.64,987.78 0,0 144.57,-20.51 211.87,10.51"/>
    </g>
    <g>
     <line class="fil1 str61" x1="11499.67" y1="9259.55" x2="12213.06" y2= "9088.96" />
    </g>
   </g>
   <g>
    <path class="fil1 str62" d="M11025.45 6607.33c140.32,-78.98 311.65,-192.99 373.01,-307.2 0,0 -109.55,12.95 -236.93,-22.09 -127.37,-35.03 -364.3,-30.78 -474.07,136.09 -109.76,166.87 -49.46,395.51 82.8,401.89 0,0 53.28,-186.82 255.19,-208.69z"/>
   </g>
  </g>
  <g>
   <g>
    <polyline class="fil1 str63" points="16579.79,3202.09 16335.83,3202.09 14604.27,3202.09 "/>
   </g>
   <g>
    <path class="fil1 str64" d="M12906.11 2841.68l449.49 0c0,0 222.15,-638.26 838.1,-294.13 0,0 521.82,-360.75 777.01,155.36 0,0 810.41,-277.51 949.01,366.28 0,0 221.81,-94.3 271.82,133.22"/>
   </g>
   <g>
    <path class="fil1 str65" d="M14559.97 2941.68c0,0 -111.07,-83.39 -288.59,-50.01 -177.52,33.39 -261.07,171.98 -255.37,283.06 0,0 -100,-94.47 -221.98,27.68l-210.75 0"/>
   </g>
   <g>
    <line class="fil1 str66" x1="13427.75" y1="3202.09" x2="13128.09" y2= "3202.09" />
   </g>
  </g>
  <g>
   <g>
    <polyline class="fil1 str67" points="13809.98,5856.02 13930.53,5856.02 15461.26,5856.02 "/>
   </g>
   <g>
    <g>
     <path class="fil1 str68" d="M13946.54 6241.6c139.21,0 252.1,135.54 252.1,302.62 0,12.19 -0.52,24.21 -1.74,36.06l-500.72 0c-1.22,-11.84 -1.74,-23.86 -1.74,-36.06 0,-167.09 112.89,-302.62 252.1,-302.62z"/>
    </g>
    <g>
     <path class="fil1 str69" d="M14076.86 6580.28c1.74,11.5 2.79,23.52 2.79,35.9 0,99.48 -59.59,179.97 -133.11,179.97 -73.52,0 -133.11,-80.49 -133.11,-179.97 0,-12.37 1.05,-24.39 2.79,-35.9l260.64 0z"/>
    </g>
    <g>
     <path class="fil1 str70" d="M14039.14 6258.21c1.24,-8.17 1.99,-16.72 1.99,-25.52 0,-70.72 -42.36,-127.95 -94.64,-127.95 -52.27,0 -94.64,57.23 -94.64,127.95 0,8.8 0.74,17.35 1.98,25.52l185.3 0z"/>
    </g>
   </g>
   <g>
    <polygon class="fil4 str71" points="14124.24,10201.34 15147,10201.34 15147,10027.38 14124.24,10027.38 "/>
   </g>
   <g>
    <polygon class="fil1 str72" points="14439.8,4674.02 14831.44,4674.02 14831.44,7596.25 14439.8,7596.25 "/>
   </g>
   <g>
    <polygon class="fil1 str73" points="14334.27,4512.16 14937.24,4512.16 14937.24,4668.75 14334.27,4668.75 "/>
   </g>
   <g>
    <polygon class="fil1 str74" points="14396.37,4330.29 14875.39,4330.29 14875.39,4512.16 14396.37,4512.16 "/>
   </g>
   <g>
    <line class="fil1 str75" x1="13946.58" y1="6063.68" x2="13946.58" y2= "5856.02" />
   </g>
   <g>
    <line class="fil1 str76" x1="15324.66" y1="6063.68" x2="15324.66" y2= "5856.02" />
   </g>
   <g>
    <g>
     <path class="fil1 str77" d="M15324.62 6241.6c139.21,0 252.1,135.54 252.1,302.62 0,12.19 -0.52,24.21 -1.74,36.06l-500.72 0c-1.22,-11.84 -1.74,-23.86 -1.74,-36.06 0,-167.09 112.89,-302.62 252.1,-302.62z"/>
    </g>
    <g>
     <path class="fil1 str78" d="M15454.95 6580.28c1.74,11.5 2.78,23.52 2.78,35.9 0,99.48 -59.58,179.97 -133.1,179.97 -73.52,0 -133.11,-80.49 -133.11,-179.97 0,-12.37 1.05,-24.39 2.79,-35.9l260.64 0z"/>
    </g>
    <g>
     <path class="fil1 str79" d="M15417.22 6258.21c1.24,-8.17 1.98,-16.72 1.98,-25.52 0,-70.72 -42.36,-127.95 -94.63,-127.95 -52.27,0 -94.64,57.23 -94.64,127.95 0,8.8 0.74,17.35 1.98,25.52l185.3 0z"/>
    </g>
   </g>
   <g>
    <g>
     <polyline class="fil1 str80" points="14314.93,10027.36 14314.93,7860.3 14956.45,7860.3 14956.45,8748.33 "/>
    </g>
    <g>
     <line class="fil1 str81" x1="14955.56" y1="9216.73" x2="14955.56" y2= "10027.36" />
    </g>
   </g>
  </g>
  <g>
   <g>
    <g>
     <path class="fil1 str82" d="M4115.64 9264.74c258.53,0 468.23,209.7 468.23,468.24 0,258.53 -209.7,468.23 -468.23,468.23 -258.54,0 -468.24,-209.7 -468.24,-468.23 0,-258.54 209.7,-468.24 468.24,-468.24z"/>
    </g>
    <g>
     <path class="fil1 str83" d="M5984.87 9264.74c258.53,0 468.23,209.7 468.23,468.24 0,258.53 -209.7,468.23 -468.23,468.23 -258.54,0 -468.24,-209.7 -468.24,-468.23 0,-258.54 209.7,-468.24 468.24,-468.24z"/>
    </g>
    <g>
     <path class="fil1 str84" d="M4115.64 9732.98c0,0 464.87,0 784.11,0 189.52,0 240.67,-261.19 339.06,-507.53 67.24,-168.47 156.96,-330.21 328.08,-396.74"/>
    </g>
    <g>
     <line class="fil1 str85" x1="5984.87" y1="9732.98" x2="5479.11" y2= "8600.26" />
    </g>
    <g>
     <line class="fil1 str86" x1="4817.64" y1="9732.98" x2="4615.02" y2= "8964.44" />
    </g>
    <g>
     <line class="fil1 str84" x1="4115.64" y1="9732.98" x2="4678.01" y2= "9203.69" />
    </g>
    <g>
     <path class="fil1 str87" d="M5678.36 9046.73c0,0 -246.5,-96.26 -439.56,178.73"/>
    </g>
    <g>
     <path class="fil1 str88" d="M4445.66 8996.47c0,0 295.53,-52.91 316.06,-67.42 20.53,-14.51 4.42,-35.22 -74.68,-32.21 -79.11,3.01 -221.02,4.25 -235.71,11.68 -14.69,7.43 -38.04,43.89 -5.67,87.95z"/>
    </g>
    <g>
     <line class="fil1 str89" x1="5317.02" y1="8604.86" x2="5536.45" y2= "8560.97" />
    </g>
    <g>
     <path class="fil1 str90" d="M4692.87 8065.3l0.18 485.94 -254.47 0 -0.18 -422.76c0,-45.48 32.39,-83.34 75.21,-92.02 10.26,38.22 49.91,66.71 96.97,66.71 34.16,0 64.42,-15.04 82.28,-37.87z"/>
    </g>
    <g>
     <path class="fil1 str91" d="M4438.59 8611.4l470.71 -0.17 0 207.57 -392.31 0.18c-43.18,0 -78.4,-35.04 -78.4,-78.4l0 -129.18z"/>
    </g>
    <g>
     <path class="fil1 str92" d="M4811.97 7554.24c47.78,42.3 77.86,104.06 77.86,172.71 0,127.41 -102.99,230.4 -230.22,230.4 -102.46,0 -189.34,-66.88 -219.25,-159.44 9.73,4.78 20.35,7.79 31.68,8.32 0,0 37.69,-132.19 180.5,-147.59 51.84,-29.2 109.72,-65.3 159.44,-104.41z"/>
    </g>
    <g>
     <path class="fil1 str93" d="M4555.74 8201.03l666.96 352.15c0,0 105.47,-41.05 134.67,35.05"/>
    </g>
    <g>
     <path class="fil1 str94" d="M4692.87 8157.32l763.59 362.24c0,0 67.77,-21.06 79.99,41.4"/>
    </g>
    <g>
     <path class="fil1 str95" d="M4909.3 8714.92c0,0 115.03,0.71 166.35,37.16 51.32,36.46 153.6,775.44 153.6,775.44 0,0 43.89,-14.51 124.41,-7.26 80.52,7.26 80.52,7.26 80.52,7.26"/>
    </g>
    <g>
     <path class="fil1 str96" d="M4909.3 8638.48c0,0 155.55,18.23 206.69,47.6 51.15,29.38 182.98,698.82 182.98,698.82 0,0 102.29,-14.51 149.89,7.43"/>
    </g>
    <g>
     <line class="fil1 str97" x1="4988.04" y1="9534.97" x2="5492.74" y2= "9414.28" />
    </g>
   </g>
   <g>
    <path class="fil1 str98" d="M4652.55 7658.62c99.28,-55.87 220.49,-136.53 263.89,-217.32 0,0 -77.5,9.15 -167.62,-15.62 -90.12,-24.78 -257.72,-21.79 -335.38,96.26 -77.65,118.06 -35,279.81 58.58,284.32 0,0 37.69,-132.17 180.53,-147.64z"/>
   </g>
  </g>
  <g>
   <g>
    <path class="fil1 str99" d="M6746.44 8923.41c352.8,0 638.96,286.15 638.96,638.95 0,352.8 -286.16,638.96 -638.96,638.96 -352.8,0 -638.96,-286.16 -638.96,-638.96 0,-352.8 286.16,-638.95 638.96,-638.95z"/>
   </g>
   <g>
    <path class="fil1 str100" d="M9297.19 8923.41c352.8,0 638.96,286.15 638.96,638.95 0,352.8 -286.16,638.96 -638.96,638.96 -352.8,0 -638.96,-286.16 -638.96,-638.96 0,-352.8 286.16,-638.95 638.96,-638.95z"/>
   </g>
   <g>
    <path class="fil1 str101" d="M6746.44 9562.36c0,0 634.37,0 1069.99,0 258.62,0 328.42,-356.42 462.68,-692.56 91.76,-229.88 214.19,-450.6 447.71,-541.39"/>
   </g>
   <g>
    <line class="fil1 str102" x1="9297.19" y1="9562.36" x2="8607.04" y2= "8016.65" />
   </g>
   <g>
    <line class="fil1 str103" x1="7704.39" y1="9562.36" x2="7427.9" y2= "8513.62" />
   </g>
   <g>
    <line class="fil1 str101" x1="6746.44" y1="9562.36" x2="7513.86" y2= "8840.1" />
   </g>
   <g>
    <path class="fil1 str104" d="M8878.94 8625.9c0,0 -336.38,-131.36 -599.83,243.89"/>
   </g>
   <g>
    <path class="fil1 str105" d="M7196.79 8557.32c0,0 403.28,-72.2 431.29,-92 28.01,-19.81 6.04,-48.06 -101.91,-43.95 -107.94,4.11 -301.61,5.8 -321.64,15.94 -20.05,10.14 -51.92,59.88 -7.73,120.01z"/>
   </g>
   <g>
    <line class="fil1 str106" x1="8385.85" y1="8022.93" x2="8685.27" y2= "7963.04" />
   </g>
   <g>
    <path class="fil1 str107" d="M7534.16 7376.45l0.18 573.41 -347.18 0 -0.18 -577.02c0,-22.17 5.6,-42.9 15.51,-61.11 83.81,42.36 201.89,82.02 331.67,64.72z"/>
   </g>
   <g>
    <path class="fil1 str108" d="M7187.14 8031.87l642.33 -0.24 0 283.25 -535.36 0.25c-58.93,0 -106.98,-47.82 -106.98,-106.98l0 -176.28z"/>
   </g>
   <g>
    <path class="fil1 str109" d="M7347 7471.88l910.13 480.54c0,0 143.92,-56.02 183.77,47.81"/>
   </g>
   <g>
    <path class="fil1 str110" d="M7534.14 7412.23l1041.98 494.31c0,0 92.49,-28.74 109.15,56.5"/>
   </g>
   <g>
    <path class="fil1 str111" d="M7829.47 8173.13c0,0 156.96,0.97 226.99,50.71 70.03,49.75 209.61,1058.17 209.61,1058.17 0,0 59.89,-19.81 169.76,-9.9 109.87,9.9 109.87,9.9 109.87,9.9"/>
   </g>
   <g>
    <path class="fil1 str112" d="M7829.47 8068.81c0,0 212.26,24.87 282.05,64.96 69.78,40.08 249.69,953.6 249.69,953.6 0,0 139.58,-19.8 204.53,10.14"/>
   </g>
   <g>
    <line class="fil1 str113" x1="7936.93" y1="9292.14" x2="8625.63" y2= "9127.45" />
   </g>
   <g>
    <path class="fil1 str114" d="M8945.79 8075.69l303.38 0c19.11,0 34.61,15.5 34.61,34.61l0 405.04c0,45.07 -36.95,82.01 -82.01,82.01l-208.57 0c-45.06,0 -82.01,-36.94 -82.01,-82.01l0 -405.04c0,-19.11 15.5,-34.61 34.61,-34.61z"/>
   </g>
   <g>
    <g>
     <path class="fil1 str115" d="M7413.4 6723.72c158.44,0 286.97,128.53 286.97,286.98 0,158.45 -128.52,286.98 -286.97,286.98 -158.45,0 -286.98,-128.52 -286.98,-286.98 0,-158.44 128.52,-286.98 286.98,-286.98z"/>
    </g>
    <g>
     <path class="fil1 str116" d="M7653.31 6853.34c0,0 -23.24,68.85 -97.69,117.35 -74.45,48.49 -312.58,-47.77 -390.98,182.97"/>
    </g>
    <g>
     <path class="fil1 str117" d="M7187.71 6833.51c0,0 -94.1,-41.64 -112.66,-15.69 -18.57,25.96 -41.1,179 -82.02,283.37 -40.92,104.38 -137.9,152.69 -137.9,152.69 0,0 0,0 18.57,-134.12 18.57,-134.11 -85.62,-257.23 -78.24,-342.85 7.39,-85.63 74.63,-204.96 234.88,-231.1 160.25,-26.13 253.27,175.22 253.27,175.22"/>
    </g>
   </g>
  </g>
  <g>
   <g>
    <line class="fil1 str118" x1="11680.54" y1="4798.64" x2="12785.86" y2= "4798.64" />
   </g>
   <g>
    <line class="fil1 str119" x1="12522.71" y1="5009.28" x2="13496.36" y2= "5009.28" />
   </g>
   <g>
    <line class="fil1 str120" x1="13095.16" y1="4798.64" x2="13160.99" y2= "4798.64" />
   </g>
   <g>
    <line class="fil1 str121" x1="11417.99" y1="5009.28" x2="11483.82" y2= "5009.28" />
   </g>
  </g>
 </g>
</svg>
